<?xml version="1.0" standalone="no"?>
<svg id="svg" viewBox="0 0 100 100" xmlns="http://www.w3.org/2000/svg"><rect x="-8" y="-20" width="16" height="40" rx="2" fill="#3366DD" transform="translate(81 81) rotate(-45 0 0)"></rect><circle r="38.9" fill="none" stroke="white" stroke-width="10" transform="translate(40.4 40.4)"></circle><circle r="35.4" fill="none" stroke="#3366DD" stroke-width="10" transform="translate(40.4 40.4)"></circle><path d="M 19 -16 A 25 25 0 0 1 19 16" fill="none" stroke="#3366DD" stroke-width="3.5" stroke-linecap="round" transform="translate(40.4 40.4)"></path><circle r="17" fill="none" stroke="white" stroke-width="15.7" transform="translate(30.2 69.2)"></circle><rect x="-6.75" y="-8.5" width="13.5" height="17" rx="1.5" fill="white" transform="translate(30.2 45.6)"></rect><rect x="-6.75" y="-8.5" width="13.5" height="17" rx="1.5" fill="white" transform="translate(30.2 45.6) rotate(45 0 23.6)"></rect><rect x="-6.75" y="-8.5" width="13.5" height="17" rx="1.5" fill="white" transform="translate(30.2 45.6) rotate(90 0 23.6)"></rect><rect x="-6.75" y="-8.5" width="13.5" height="17" rx="1.5" fill="white" transform="translate(30.2 45.6) rotate(135 0 23.6)"></rect><rect x="-6.75" y="-8.5" width="13.5" height="17" rx="1.5" fill="white" transform="translate(30.2 45.6) rotate(180 0 23.6)"></rect><rect x="-6.75" y="-8.5" width="13.5" height="17" rx="1.5" fill="white" transform="translate(30.2 45.6) rotate(225 0 23.6)"></rect><rect x="-6.75" y="-8.5" width="13.5" height="17" rx="1.5" fill="white" transform="translate(30.2 45.6) rotate(270 0 23.6)"></rect><rect x="-6.75" y="-8.5" width="13.5" height="17" rx="1.5" fill="white" transform="translate(30.2 45.6) rotate(315 0 23.6)"></rect><circle r="17" fill="none" stroke="#3366DD" stroke-width="8.7" transform="translate(30.2 69.2)"></circle><rect x="-3.25" y="-5" width="6.5" height="10" fill="#3366DD" transform="translate(30.2 45.6)"></rect><rect x="-3.25" y="-5" width="6.5" height="10" fill="#3366DD" transform="translate(30.2 45.6) rotate(45 0 23.6)"></rect><rect x="-3.25" y="-5" width="6.5" height="10" fill="#3366DD" transform="translate(30.2 45.6) rotate(90 0 23.6)"></rect><rect x="-3.25" y="-5" width="6.5" height="10" fill="#3366DD" transform="translate(30.2 45.6) rotate(135 0 23.6)"></rect><rect x="-3.25" y="-5" width="6.5" height="10" fill="#3366DD" transform="translate(30.2 45.6) rotate(180 0 23.6)"></rect><rect x="-3.25" y="-5" width="6.5" height="10" fill="#3366DD" transform="translate(30.2 45.6) rotate(225 0 23.6)"></rect><rect x="-3.25" y="-5" width="6.5" height="10" fill="#3366DD" transform="translate(30.2 45.6) rotate(270 0 23.6)"></rect><rect x="-3.25" y="-5" width="6.5" height="10" fill="#3366DD" transform="translate(30.2 45.6) rotate(315 0 23.6)"></rect></svg>